{"title":"Standoff (2016) HDRip X264 AC3-EVO","uid":13097001,"size":1224458693,"categoryP":"video","categoryS":"movies","magnet":"?xt=urn:btih:dab194058b3de240b1ec3229723d82eb93683e12&amp;dn=Standoff+%282016%29+HDRip+X264+AC3-EVO&amp;tr=udp%3A%2F%2Ftracker.leechers-paradise.org%3A6969&amp;tr=udp%3A%2F%2Fzer0day.ch%3A1337&amp;tr=udp%3A%2F%2Fopen.demonii.com%3A1337&amp;tr=udp%3A%2F%2Ftracker.coppersurfer.tk%3A6969&amp;tr=udp%3A%2F%2Fexodus.desync.com%3A6969","seeders":0,"leechers":1,"uploader":"tykoon123","files":2,"time":1451141333,"description":"[img]http://dl9fvu4r30qs1.cloudfront.net/1a/8a/5d872894421b8cb3c82943ec7af8/standoff-poster.jpg[/img]\r\n\r\n \nhttp://www.imdb.com/title/tt3703908/\r\n\r\n\r\nFormat                      : Matroska\r\nFormat version              : Version 4 / Version 2\r\nFile size                   : 1.14 GiB\r\nDuration                    : 1h 26mn\r\nOverall bit rate            : 1 897 Kbps\r\nEncoded date                : UTC 2015-12-26 00:20:59\r\nWriting application         : mkvmerge v8.3.0 ('Over the Horizon') 64bit\r\nWriting library             : libebml v1.3.1 + libmatroska v1.4.2\r\nDURATION                    : 01:26:03.038000000\r\nNUMBER_OF_FRAMES            : 123789\r\nNUMBER_OF_BYTES             : 975530999\r\n_STATISTICS_WRITING_APP     : mkvmerge v8.3.0 ('Over the Horizon') 64bit\r\n_STATISTICS_WRITING_DATE_UT : 2015-12-26 00:20:59\r\n_STATISTICS_TAGS            : BPS DURATION NUMBER_OF_FRAMES NUMBER_OF_BYTES\r\n\r\nVideo\r\nID                          : 2\r\nFormat                      : AVC\r\nFormat/Info                 : Advanced Video Codec\r\nFormat profile              :   \r\nFormat settings, CABAC      : No\r\nFormat settings, ReFrames   : 1 frame\r\nCodec ID                    : V_MPEG4/ISO/AVC\r\nDuration                    : 1h 26mn\r\nBit rate                    : 1 476 Kbps\r\nWidth                       : 640 pixels\r\nHeight                      : 354 pixels\r\nDisplay aspect ratio        : 2.40:1\r\nOriginal display aspect rat : 2.40:1\r\nFrame rate mode             : Constant\r\nFrame rate                  : 23.976 fps\r\nColor space                 : YUV\r\nChroma subsampling          : 4:2:0\r\nBit depth                   : 8 bits\r\nScan type                   : Progressive\r\nBits/(Pixel*Frame)          : 0.272\r\nStream size                 : 908 MiB (78%)\r\nLanguage                    : English\r\nDefault                     : Yes\r\nForced                      : No\r\nColor range                 : Limited\r\nColor primaries             : BT.601 NTSC\r\nTransfer characteristics    : BT.709\r\nMatrix coefficients         : BT.601\r\n\r\nAudio\r\nID                          : 1\r\nFormat                      : AC-3\r\nFormat/Info                 : Audio Coding 3\r\nMode extension              : CM (complete main)\r\nFormat settings, Endianness : Big\r\nCodec ID                    : A_AC3\r\nDuration                    : 1h 26mn\r\nBit rate mode               : Constant\r\nBit rate                    : 384 Kbps\r\nChannel(s)                  : 6 channels\r\nChannel positions           : Front: L C R, Side: L R, LFE\r\nSampling rate               : 48.0 KHz\r\nCompression mode            : Lossy\r\nStream size                 : 236 MiB (20%)\r\nLanguage                    : English\r\nDefault                     : Yes\r\nForced                      : No\r\n\r\nScreens: \nhttp://pastebay.org/index.php/view/raw/5985286","torrent":{"xt":"urn:btih:dab194058b3de240b1ec3229723d82eb93683e12","amp;dn":"Standoff+%282016%29+HDRip+X264+AC3-EVO","amp;tr":["udp%3A%2F%2Ftracker.leechers-paradise.org%3A6969","udp%3A%2F%2Fzer0day.ch%3A1337","udp%3A%2F%2Fopen.demonii.com%3A1337","udp%3A%2F%2Ftracker.coppersurfer.tk%3A6969","udp%3A%2F%2Fexodus.desync.com%3A6969"],"infoHash":"dab194058b3de240b1ec3229723d82eb93683e12","infoHashBuffer":{"type":"Buffer","data":[218,177,148,5,139,61,226,64,177,236,50,41,114,61,130,235,147,104,62,18]},"announce":[],"urlList":[]}}